<svg width="206" height="40" viewBox="0 0 206 40" fill="none" xmlns="http://www.w3.org/2000/svg">
<path d="M58 30.5385V8.38462H61.3098L68.9056 24.0769L76.5014 8.38462H79.8112V30.5385H76.3794V16.3385L69.6377 30.5385H68.1735L61.4471 16.3385V30.5385H58ZM89.754 31C88.1067 31 86.6679 30.6257 85.4375 29.8769C84.2071 29.1282 83.2513 28.0974 82.57 26.7847C81.8989 25.4615 81.5634 23.9436 81.5634 22.2307C81.5634 20.4872 81.9091 18.959 82.6006 17.6461C83.292 16.3334 84.2529 15.3077 85.4833 14.5692C86.7137 13.8308 88.1372 13.4615 89.754 13.4615C91.4115 13.4615 92.8553 13.8359 94.0858 14.5846C95.3161 15.3333 96.2719 16.3693 96.9532 17.6923C97.6345 19.0051 97.9752 20.5179 97.9752 22.2307C97.9752 23.9538 97.6294 25.4769 96.938 26.8C96.2567 28.1129 95.3009 29.1436 94.0705 29.8923C92.8401 30.6307 91.4013 31 89.754 31ZM89.754 27.5231C91.2182 27.5231 92.3063 27.0308 93.0181 26.0462C93.7299 25.0616 94.0858 23.7898 94.0858 22.2307C94.0858 20.6205 93.7248 19.3385 93.0028 18.3847C92.2809 17.4205 91.1979 16.9385 89.754 16.9385C88.7677 16.9385 87.9542 17.1641 87.3136 17.6154C86.6832 18.0564 86.2154 18.6769 85.9104 19.4769C85.6053 20.2667 85.4528 21.1847 85.4528 22.2307C85.4528 23.8411 85.8137 25.1282 86.5357 26.0923C87.2678 27.0461 88.3406 27.5231 89.754 27.5231ZM111.112 30.5385V22.5385C111.112 22.0154 111.076 21.4359 111.005 20.8C110.934 20.1641 110.766 19.5539 110.502 18.9692C110.247 18.3744 109.861 17.8872 109.342 17.5077C108.834 17.1282 108.143 16.9385 107.268 16.9385C106.8 16.9385 106.338 17.0154 105.88 17.1692C105.423 17.3231 105.006 17.5898 104.629 17.9692C104.263 18.3385 103.968 18.8513 103.745 19.5077C103.521 20.1538 103.409 20.9846 103.409 22L101.228 21.0615C101.228 19.6461 101.497 18.3641 102.036 17.2154C102.586 16.0667 103.389 15.1539 104.446 14.4769C105.504 13.7898 106.805 13.4462 108.351 13.4462C109.571 13.4462 110.578 13.6513 111.371 14.0615C112.164 14.4718 112.795 14.9949 113.262 15.6308C113.73 16.2667 114.076 16.9436 114.299 17.6616C114.523 18.3795 114.666 19.0616 114.727 19.7077C114.798 20.3436 114.833 20.8616 114.833 21.2615V30.5385H111.112ZM99.6875 30.5385V13.9231H102.967V19.0769H103.409V30.5385H99.6875ZM123.556 31C121.522 31 119.87 30.5385 118.599 29.6154C117.328 28.6923 116.555 27.3949 116.281 25.7231L120.033 25.1384C120.226 25.959 120.653 26.6052 121.314 27.0769C121.975 27.5487 122.809 27.7846 123.815 27.7846C124.7 27.7846 125.381 27.6103 125.859 27.2615C126.347 26.9026 126.591 26.4154 126.591 25.8C126.591 25.4206 126.5 25.118 126.317 24.8923C126.144 24.6564 125.758 24.4308 125.158 24.2154C124.558 24 123.638 23.7282 122.397 23.4C121.014 23.0308 119.916 22.6359 119.102 22.2154C118.289 21.7846 117.704 21.2769 117.348 20.6923C116.992 20.1077 116.815 19.4 116.815 18.5692C116.815 17.5333 117.084 16.6307 117.623 15.8616C118.162 15.0923 118.914 14.5026 119.88 14.0923C120.846 13.6718 121.985 13.4615 123.297 13.4615C124.578 13.4615 125.712 13.6615 126.698 14.0615C127.695 14.4615 128.498 15.0308 129.108 15.7692C129.718 16.5077 130.094 17.3744 130.237 18.3692L126.485 19.0461C126.393 18.3385 126.073 17.7795 125.524 17.3692C124.985 16.959 124.263 16.7282 123.358 16.6769C122.494 16.6257 121.797 16.759 121.268 17.0769C120.74 17.3846 120.475 17.8205 120.475 18.3847C120.475 18.7026 120.582 18.9744 120.795 19.2C121.009 19.4257 121.436 19.6513 122.077 19.8769C122.727 20.1026 123.693 20.3795 124.975 20.7077C126.286 21.0461 127.334 21.4359 128.117 21.8769C128.91 22.3077 129.479 22.8257 129.825 23.4308C130.181 24.0359 130.359 24.7693 130.359 25.6308C130.359 27.3026 129.754 28.6154 128.544 29.5692C127.344 30.5231 125.681 31 123.556 31ZM141.737 30.5385C140.649 30.7436 139.581 30.8308 138.534 30.8C137.497 30.7795 136.566 30.5898 135.743 30.2308C134.919 29.8616 134.294 29.2821 133.867 28.4923C133.49 27.7744 133.292 27.041 133.272 26.2923C133.251 25.5436 133.241 24.6975 133.241 23.7539V9.30769H136.902V23.5385C136.902 24.2051 136.907 24.7897 136.917 25.2923C136.937 25.7949 137.044 26.2052 137.237 26.5231C137.603 27.1385 138.188 27.482 138.992 27.5538C139.795 27.6256 140.71 27.5846 141.737 27.4308V30.5385ZM130.252 16.8308V13.9231H141.737V16.8308H130.252ZM150.316 31C148.649 31 147.185 30.6359 145.924 29.9077C144.663 29.1795 143.677 28.1692 142.965 26.8769C142.263 25.5846 141.912 24.0974 141.912 22.4154C141.912 20.6 142.258 19.0257 142.949 17.6923C143.641 16.3487 144.602 15.3077 145.832 14.5692C147.062 13.8308 148.486 13.4615 150.103 13.4615C151.811 13.4615 153.26 13.8667 154.45 14.6769C155.649 15.4769 156.539 16.6103 157.119 18.0769C157.699 19.5436 157.917 21.2718 157.775 23.2616H154.129V21.9077C154.119 20.1026 153.804 18.7846 153.184 17.9539C152.563 17.1231 151.587 16.7077 150.255 16.7077C148.75 16.7077 147.632 17.1795 146.9 18.1231C146.168 19.0564 145.801 20.4257 145.801 22.2307C145.801 23.9129 146.168 25.2154 146.9 26.1385C147.632 27.0616 148.7 27.5231 150.103 27.5231C151.008 27.5231 151.785 27.3231 152.436 26.9231C153.097 26.5128 153.606 25.9231 153.962 25.1539L157.592 26.2615C156.961 27.7589 155.985 28.9231 154.663 29.7539C153.351 30.5847 151.903 31 150.316 31ZM144.642 23.2616V20.4616H155.975V23.2616H144.642ZM159.56 30.5385V13.9231H162.809V17.9692L162.413 17.4462C162.616 16.8923 162.885 16.3897 163.221 15.9385C163.567 15.4769 163.979 15.0974 164.457 14.8C164.863 14.5231 165.311 14.3077 165.799 14.1538C166.297 13.9897 166.806 13.8923 167.324 13.8615C167.843 13.8205 168.346 13.841 168.834 13.9231V17.3846C168.346 17.241 167.781 17.1949 167.14 17.2461C166.51 17.2975 165.941 17.4769 165.432 17.7846C164.924 18.0616 164.507 18.4154 164.182 18.8462C163.866 19.277 163.632 19.7692 163.48 20.3231C163.328 20.8666 163.252 21.4564 163.252 22.0923V30.5385H159.56ZM174.586 30.5385L174.616 8.38462H178.337V21.9231L184.362 13.9231H188.954L182.563 22.2307L189.503 30.5385H184.637L178.337 22.5385V30.5385H174.586ZM189.718 11.4V8H193.393V11.4H189.718ZM189.718 30.5385V13.9231H193.393V30.5385H189.718ZM206 30.5385C204.911 30.7436 203.844 30.8308 202.797 30.8C201.759 30.7795 200.829 30.5898 200.006 30.2308C199.181 29.8616 198.556 29.2821 198.129 28.4923C197.753 27.7744 197.555 27.041 197.535 26.2923C197.514 25.5436 197.504 24.6975 197.504 23.7539V9.30769H201.165V23.5385C201.165 24.2051 201.17 24.7897 201.18 25.2923C201.2 25.7949 201.307 26.2052 201.5 26.5231C201.866 27.1385 202.451 27.482 203.254 27.5538C204.057 27.6256 204.973 27.5846 206 27.4308V30.5385ZM194.514 16.8308V13.9231H206V16.8308H194.514Z" fill="white"/>
<path fill-rule="evenodd" clip-rule="evenodd" d="M0 8C0 3.58172 3.58172 0 8 0H32C36.4183 0 40 3.58172 40 8V32C40 36.4183 36.4183 40 32 40H8C3.58172 40 0 36.4183 0 32V8ZM8.67578 12H8.67572C8.67572 12 6.61042 19.5354 8.67572 23.6542C10.3226 26.9387 15.6862 30.2246 15.6862 30.2246C15.6862 30.2246 14.3556 24.7041 14.3556 21.1123C14.3556 20.2082 14.4399 19.182 14.566 18.1523L16.4938 20.1658L16.4922 20.1674L19.9964 23.8267L19.9976 23.8254L19.9988 23.8267L23.5051 20.1674L23.5028 20.165L25.4325 18.1498C25.5588 19.1803 25.6433 20.2075 25.6433 21.1123C25.6433 24.7041 24.3126 30.2246 24.3126 30.2246C24.3126 30.2246 29.6762 26.9387 31.3231 23.6542C33.3884 19.5354 31.3231 12 31.3231 12H31.3215H24.3126H24.311L19.9986 16.5046L15.6863 12H15.6862H8.67578Z" fill="white"/>
</svg>
